<svg width="140" height="34" viewBox="0 0 140 34" fill="none" xmlns="http://www.w3.org/2000/svg">
<path d="M1.59375 17.25C1.65625 16.7292 1.73958 16.2396 1.84375 15.7812C1.94792 15.3021 2.0625 14.8333 2.1875 14.375C2.3125 13.9167 2.44792 13.4479 2.59375 12.9688C2.76042 12.4688 2.9375 11.9062 3.125 11.2812V11.125C2.29167 11.6042 1.69792 11.8438 1.34375 11.8438C1.01042 11.8438 0.84375 11.7188 0.84375 11.4688C0.822917 11.2188 0.927083 10.8854 1.15625 10.4688C1.40625 10.0521 1.69792 9.66667 2.03125 9.3125C2.38542 8.95833 2.73958 8.67708 3.09375 8.46875C3.46875 8.26042 3.76042 8.22917 3.96875 8.375C4.21875 8.375 4.41667 8.41667 4.5625 8.5C4.72917 8.58333 4.90625 8.70833 5.09375 8.875C5.57292 8.5 6.02083 8.19792 6.4375 7.96875C6.85417 7.73958 7.35417 7.625 7.9375 7.625C8.85417 7.625 9.54167 7.83333 10 8.25C10.4792 8.66667 10.8229 9.33333 11.0312 10.25C11.3854 9.89583 11.7083 9.57292 12 9.28125C12.2917 8.96875 12.6042 8.70833 12.9375 8.5C13.2917 8.27083 13.6667 8.10417 14.0625 8C14.4583 7.875 14.9062 7.8125 15.4062 7.8125C15.8229 7.8125 16.2292 7.96875 16.625 8.28125C17.0208 8.59375 17.3021 8.9375 17.4688 9.3125C17.4688 9.39583 17.4688 9.58333 17.4688 9.875C17.4688 10.1667 17.4688 10.3646 17.4688 10.4688C17.4688 11.1771 17.3854 11.8646 17.2188 12.5312C17.0521 13.1771 16.9688 13.8438 16.9688 14.5312C16.9688 14.8229 17 15.125 17.0625 15.4375C17.1458 15.7292 17.375 15.875 17.75 15.875C18.25 15.875 18.6979 15.7708 19.0938 15.5625C19.5104 15.3542 19.8854 15.1042 20.2188 14.8125C20.5729 14.5 20.8854 14.1667 21.1562 13.8125C21.4479 13.4583 21.7083 13.1354 21.9375 12.8438C22.1875 12.5312 22.4167 12.2708 22.625 12.0625C22.8333 11.8542 23.0417 11.75 23.25 11.75C23.3958 11.75 23.5521 11.8125 23.7188 11.9375C23.9062 12.0417 24 12.1771 24 12.3438C24 12.3646 23.9896 12.3958 23.9688 12.4375C23.9688 12.4792 23.9688 12.5104 23.9688 12.5312C23.7604 13.1771 23.4583 13.7917 23.0625 14.375C22.6667 14.9583 22.2083 15.4792 21.6875 15.9375C21.1667 16.375 20.5833 16.7292 19.9375 17C19.3125 17.25 18.6458 17.375 17.9375 17.375C17.2708 17.375 16.7083 17.2917 16.25 17.125C15.7917 16.9375 15.4375 16.5208 15.1875 15.875C15.1875 15.8125 15.1771 15.6771 15.1562 15.4688C15.1562 15.2396 15.1562 15.1042 15.1562 15.0625C15.1562 14.2708 15.2292 13.5104 15.375 12.7812C15.5417 12.0521 15.625 11.3125 15.625 10.5625C15.625 10.5 15.6146 10.3646 15.5938 10.1562C15.5938 9.94792 15.5938 9.8125 15.5938 9.75C15.5104 9.64583 15.375 9.59375 15.1875 9.59375C15.0208 9.59375 14.8646 9.59375 14.7188 9.59375C14.2812 9.59375 13.8646 9.75 13.4688 10.0625C13.0729 10.375 12.7083 10.7708 12.375 11.25C12.0417 11.7292 11.7396 12.2708 11.4688 12.875C11.2188 13.4583 11 14.0521 10.8125 14.6562C10.625 15.2396 10.4688 15.7917 10.3438 16.3125C10.2396 16.8125 10.1771 17.2292 10.1562 17.5625L9.8125 17.875H8.75C8.5625 17.875 8.45833 17.7812 8.4375 17.5938C8.4375 17.3854 8.4375 17.2292 8.4375 17.125C8.4375 16.625 8.46875 16.125 8.53125 15.625C8.61458 15.1042 8.69792 14.5938 8.78125 14.0938C8.88542 13.5729 8.97917 13.0521 9.0625 12.5312C9.14583 12.0104 9.19792 11.5 9.21875 11C9.19792 10.8333 9.17708 10.6562 9.15625 10.4688C9.13542 10.2604 9.09375 10.0729 9.03125 9.90625C8.96875 9.73958 8.875 9.60417 8.75 9.5C8.625 9.375 8.44792 9.3125 8.21875 9.3125C7.88542 9.3125 7.5625 9.375 7.25 9.5C6.9375 9.625 6.64583 9.79167 6.375 10C6.125 10.1875 5.89583 10.4271 5.6875 10.7188C5.5 10.9896 5.36458 11.2917 5.28125 11.625L3.40625 17.6875L3.125 18C3.125 18 3.0625 18 2.9375 18C2.8125 18.0208 2.71875 18.0312 2.65625 18.0312C2.42708 18.0312 2.1875 18.0104 1.9375 17.9688C1.70833 17.9062 1.59375 17.7083 1.59375 17.375V17.25ZM23.1562 17.0625C23.1562 17 23.1562 16.8438 23.1562 16.5938C23.1562 16.3438 23.1562 16.1771 23.1562 16.0938C22.8021 14.8438 22.75 13.6146 23 12.4062C23.2708 11.1979 23.7396 10.1146 24.4062 9.15625C25.0938 8.17708 25.9583 7.36458 27 6.71875C28.0625 6.05208 29.2188 5.64583 30.4688 5.5H31.0312C31.4896 5.5 31.8646 5.60417 32.1562 5.8125C32.4688 6 32.7083 6.25 32.875 6.5625C33.0625 6.875 33.1875 7.22917 33.25 7.625C33.3333 8.02083 33.375 8.41667 33.375 8.8125C33.375 9.35417 33.3125 9.88542 33.1875 10.4062C33.0833 10.9062 32.9583 11.4167 32.8125 11.9375C32.6875 12.4583 32.5625 12.9792 32.4375 13.5C32.3333 14 32.2812 14.5312 32.2812 15.0938V15.2812C32.3021 15.3229 32.3229 15.4479 32.3438 15.6562C32.3854 15.8438 32.4167 15.9583 32.4375 16C32.4792 16 32.5833 16.0104 32.75 16.0312C32.9167 16.0312 33.0208 16.0312 33.0625 16.0312C33.2708 16.0312 33.4688 16.0312 33.6562 16.0312C33.8646 16.0104 34.0729 15.9583 34.2812 15.875L40.2188 13.125C40.2396 13.125 40.2708 13.125 40.3125 13.125C40.375 13.1042 40.4167 13.0938 40.4375 13.0938C40.6458 13.0938 40.8125 13.1562 40.9375 13.2812C41.0833 13.4062 41.1562 13.5729 41.1562 13.7812C41.1562 13.8854 41.1458 13.9896 41.125 14.0938C41.125 14.1771 41.0729 14.2604 40.9688 14.3438C40.8229 14.4479 40.5521 14.5938 40.1562 14.7812C39.7812 14.9688 39.375 15.1771 38.9375 15.4062C38.5 15.6354 38.0833 15.8542 37.6875 16.0625C37.3125 16.2708 37.0417 16.4062 36.875 16.4688C36.5833 16.6354 36.2604 16.7917 35.9062 16.9375C35.5521 17.0625 35.1875 17.1875 34.8125 17.3125C34.4375 17.4375 34.0625 17.5417 33.6875 17.625C33.3333 17.6875 33.0104 17.7188 32.7188 17.7188C32.2604 17.7188 31.8854 17.6458 31.5938 17.5C31.3021 17.3333 31.0833 17.125 30.9375 16.875C30.7917 16.6042 30.6875 16.2917 30.625 15.9375C30.5833 15.5625 30.5833 15.1771 30.625 14.7812C30.2083 15.1146 29.7604 15.4688 29.2812 15.8438C28.8021 16.2188 28.3021 16.5625 27.7812 16.875C27.2604 17.1875 26.7292 17.4583 26.1875 17.6875C25.6458 17.9167 25.0938 18.0312 24.5312 18.0312C24.2188 18.0312 23.9375 17.9583 23.6875 17.8125C23.4375 17.6458 23.2604 17.3958 23.1562 17.0625ZM24.8438 16.4062C25.3229 16.4062 25.8542 16.2708 26.4375 16C27.0208 15.7083 27.5938 15.3542 28.1562 14.9375C28.7188 14.5208 29.2292 14.0833 29.6875 13.625C30.1458 13.1458 30.5 12.7188 30.75 12.3438C30.7708 11.7188 30.8542 11.125 31 10.5625C31.1667 9.97917 31.25 9.38542 31.25 8.78125C31.25 8.73958 31.2396 8.67708 31.2188 8.59375C31.2188 8.51042 31.2188 8.44792 31.2188 8.40625C30.9479 8.17708 30.7188 8.04167 30.5312 8C30.3438 7.95833 30.0938 7.9375 29.7812 7.9375C29.7396 7.9375 29.6458 7.9375 29.5 7.9375C29.375 7.9375 29.2917 7.94792 29.25 7.96875C29.125 8.07292 28.9167 8.27083 28.625 8.5625C28.3333 8.83333 28.0208 9.13542 27.6875 9.46875C27.375 9.80208 27.0729 10.1146 26.7812 10.4062C26.5104 10.6979 26.3229 10.8958 26.2188 11C26.1979 11 26.1562 11.0417 26.0938 11.125C26.0312 11.1875 25.9583 11.2708 25.875 11.375C25.8125 11.4792 25.75 11.5833 25.6875 11.6875C25.6458 11.7708 25.6146 11.8438 25.5938 11.9062L24.8438 15.5625V16.4062ZM39.6562 14.625C39.7396 14.3333 39.7917 14.0312 39.8125 13.7188C39.8542 13.4062 39.8958 13.0729 39.9375 12.7188C40 12.3646 40.0938 11.9688 40.2188 11.5312C40.3646 11.0729 40.5833 10.5625 40.875 10C41.1667 9.4375 41.5521 8.79167 42.0312 8.0625C42.5312 7.3125 43.1771 6.45833 43.9688 5.5C44.0521 5.375 44.1562 5.27083 44.2812 5.1875C44.4062 5.08333 44.5417 5.03125 44.6875 5.03125C44.9375 5.03125 45.1562 5.13542 45.3438 5.34375C45.5312 5.53125 45.625 5.73958 45.625 5.96875C45.625 5.98958 45.6042 6.0625 45.5625 6.1875C45.5417 6.29167 45.5208 6.36458 45.5 6.40625C45.2708 6.88542 45.0521 7.3125 44.8438 7.6875C44.6354 8.0625 44.4167 8.42708 44.1875 8.78125C43.9583 9.11458 43.6979 9.46875 43.4062 9.84375C43.1354 10.2188 42.8125 10.6458 42.4375 11.125C42.1875 11.75 41.9688 12.3333 41.7812 12.875C41.5938 13.4167 41.5 14.0208 41.5 14.6875C41.5 15.0208 41.5104 15.2917 41.5312 15.5C41.5729 15.7083 41.6771 15.9896 41.8438 16.3438H42.1875C42.7917 16.3438 43.4792 16.1042 44.25 15.625C45.0417 15.125 45.8125 14.5417 46.5625 13.875C47.3333 13.1875 48.0312 12.4896 48.6562 11.7812C49.2812 11.0729 49.7396 10.5 50.0312 10.0625C50.0729 10.0208 50.125 9.92708 50.1875 9.78125C50.2708 9.61458 50.3229 9.51042 50.3438 9.46875C50.3854 9.34375 50.4583 9.13542 50.5625 8.84375C50.6667 8.53125 50.7708 8.20833 50.875 7.875C51 7.54167 51.1146 7.22917 51.2188 6.9375C51.3229 6.625 51.3958 6.40625 51.4375 6.28125C51.4792 6.09375 51.5625 5.98958 51.6875 5.96875C51.8125 5.94792 51.9375 5.9375 52.0625 5.9375C52.4375 5.9375 52.6771 6.02083 52.7812 6.1875C52.8854 6.33333 52.9375 6.58333 52.9375 6.9375V7.46875C52.7292 8.03125 52.5417 8.55208 52.375 9.03125C52.2292 9.51042 52.0833 9.97917 51.9375 10.4375C51.8125 10.8958 51.7188 11.3542 51.6562 11.8125C51.5938 12.2708 51.5625 12.7708 51.5625 13.3125C51.5625 13.375 51.5521 13.5208 51.5312 13.75C51.5312 13.9792 51.5417 14.2188 51.5625 14.4688C51.6042 14.6979 51.6667 14.9167 51.75 15.125C51.8542 15.3125 52 15.4062 52.1875 15.4062C52.6875 15.4062 53.1979 15.3438 53.7188 15.2188C54.2604 15.0729 54.8021 14.8958 55.3438 14.6875C55.8854 14.4583 56.3958 14.2083 56.875 13.9375C57.375 13.6667 57.8438 13.3958 58.2812 13.125C58.3854 13.0833 58.5104 12.9896 58.6562 12.8438C58.8021 12.6979 58.9583 12.5625 59.125 12.4375C59.2917 12.2917 59.4583 12.1667 59.625 12.0625C59.7917 11.9583 59.9479 11.9062 60.0938 11.9062C60.5104 11.9062 60.7188 12.1146 60.7188 12.5312C60.7188 12.8438 60.5312 13.1771 60.1562 13.5312C59.7812 13.8646 59.3021 14.1979 58.7188 14.5312C58.1562 14.8646 57.5208 15.1771 56.8125 15.4688C56.1042 15.7604 55.4167 16.0208 54.75 16.25C54.1042 16.4583 53.5208 16.6354 53 16.7812C52.4792 16.9062 52.1042 16.9688 51.875 16.9688C51.7917 16.9688 51.6354 16.9688 51.4062 16.9688C51.1979 16.9479 51.0521 16.9375 50.9688 16.9375C50.6354 16.8542 50.375 16.6667 50.1875 16.375C50 16.0833 49.8542 15.7604 49.75 15.4062C49.6667 15.0312 49.6146 14.6667 49.5938 14.3125C49.5729 13.9375 49.5625 13.6354 49.5625 13.4062C49.5 13.4479 49.4167 13.5 49.3125 13.5625C49.2292 13.6042 49.1771 13.6562 49.1562 13.7188C48.9896 13.8646 48.7083 14.0938 48.3125 14.4062C47.9375 14.6979 47.5208 15.0208 47.0625 15.375C46.625 15.7083 46.2083 16.0208 45.8125 16.3125C45.4375 16.6042 45.1771 16.8125 45.0312 16.9375C44.6146 17.25 44.1562 17.5104 43.6562 17.7188C43.1562 17.9271 42.6458 18.0312 42.125 18.0312C41.5833 18.0312 41.1562 17.9479 40.8438 17.7812C40.5312 17.5938 40.2812 17.3542 40.0938 17.0625C39.9271 16.75 39.8125 16.3854 39.75 15.9688C39.6875 15.5521 39.6562 15.1042 39.6562 14.625ZM62.25 33.25C62.1458 32.9375 62.0521 32.6458 61.9688 32.375C61.9062 32.1042 61.8646 31.8438 61.8438 31.5938C61.8229 31.3646 61.8021 31.125 61.7812 30.875C61.7812 30.6458 61.7812 30.3646 61.7812 30.0312C61.7812 29.9896 61.7812 29.9062 61.7812 29.7812C61.7812 29.6771 61.7812 29.5521 61.7812 29.4062C61.7812 29.2812 61.7812 29.1562 61.7812 29.0312C61.8021 28.9271 61.8125 28.8542 61.8125 28.8125C62.0417 27.7917 62.2917 26.7812 62.5625 25.7812C62.8542 24.8021 63.1979 23.8438 63.5938 22.9062C63.9896 21.9896 64.4688 21.1146 65.0312 20.2812C65.5938 19.4688 66.2917 18.7083 67.125 18C67.1458 17.8958 67.1771 17.6875 67.2188 17.375C67.2604 17.0625 67.3125 16.7396 67.375 16.4062C67.4375 16.0729 67.4792 15.7604 67.5 15.4688C67.5417 15.1562 67.5729 14.9271 67.5938 14.7812C67.5938 14.7396 67.5833 14.6458 67.5625 14.5C67.5625 14.3333 67.5625 14.2292 67.5625 14.1875H67.4688C66.7396 14.5625 66.0417 14.8958 65.375 15.1875C64.7083 15.4583 63.9792 15.5938 63.1875 15.5938C62.75 15.5938 62.375 15.5208 62.0625 15.375C61.7708 15.2292 61.5312 15.0312 61.3438 14.7812C61.1562 14.5312 61.0104 14.2396 60.9062 13.9062C60.8229 13.5729 60.7708 13.2083 60.75 12.8125L61.5 10.5312C61.6875 10.0104 61.9167 9.45833 62.1875 8.875C62.4792 8.27083 62.8021 7.69792 63.1562 7.15625C63.5312 6.61458 63.9583 6.125 64.4375 5.6875C64.9167 5.22917 65.4583 4.90625 66.0625 4.71875C66.875 4.59375 67.625 4.61458 68.3125 4.78125C69.0208 4.94792 69.6354 5.1875 70.1562 5.5C70.6771 5.8125 71.0938 6.15625 71.4062 6.53125C71.7396 6.88542 71.9375 7.19792 72 7.46875C71.9583 7.78125 71.8646 8.11458 71.7188 8.46875C71.5729 8.80208 71.4062 9.14583 71.2188 9.5C71.0521 9.83333 70.875 10.1458 70.6875 10.4375C70.5208 10.7083 70.3958 10.9375 70.3125 11.125C70.1458 11.5 70 11.8958 69.875 12.3125C69.75 12.7292 69.6354 13.1562 69.5312 13.5938C69.4479 14.0312 69.375 14.4792 69.3125 14.9375C69.2708 15.375 69.25 15.7812 69.25 16.1562V16.625C70.3125 16 71.4583 15.5104 72.6875 15.1562C73.9167 14.8021 75.1354 14.625 76.3438 14.625C76.4896 14.625 76.6771 14.625 76.9062 14.625C77.1562 14.625 77.3854 14.6562 77.5938 14.7188C77.8229 14.7604 78.0208 14.8542 78.1875 15C78.3542 15.125 78.4375 15.3125 78.4375 15.5625C78.4375 15.9583 78.2188 16.1562 77.7812 16.1562C77.7188 16.1562 77.5729 16.1458 77.3438 16.125C77.1146 16.0833 76.9583 16.0417 76.875 16C76.7292 16.0208 76.4792 16.0625 76.125 16.125C75.7708 16.1875 75.3854 16.2604 74.9688 16.3438C74.5521 16.4271 74.1667 16.5104 73.8125 16.5938C73.4583 16.6771 73.2083 16.7292 73.0625 16.75C73 16.7708 72.875 16.8229 72.6875 16.9062C72.5208 16.9688 72.3333 17.0417 72.125 17.125C71.9167 17.2083 71.7083 17.2917 71.5 17.375C71.3125 17.4375 71.1875 17.5 71.125 17.5625C70.9583 17.6042 70.7604 17.6875 70.5312 17.8125C70.3229 17.9167 70.1146 18.0208 69.9062 18.125C69.6979 18.25 69.5104 18.3542 69.3438 18.4375C69.1979 18.5417 69.125 18.6042 69.125 18.625L68.8125 19.0625L68.0625 26.9688C68 27.5104 67.8438 28.1667 67.5938 28.9375C67.3646 29.7083 67.0521 30.4479 66.6562 31.1562C66.2604 31.8646 65.7708 32.4583 65.1875 32.9375C64.625 33.4375 63.9792 33.6875 63.25 33.6875C63.0417 33.6875 62.8542 33.6562 62.6875 33.5938C62.5417 33.5521 62.3958 33.4375 62.25 33.25ZM63.3125 30.1875C63.3333 30.375 63.3542 30.6458 63.375 31C63.4167 31.3542 63.4896 31.6458 63.5938 31.875C63.9896 31.7708 64.3542 31.4792 64.6875 31C65.0208 30.5417 65.3021 30.0208 65.5312 29.4375C65.7604 28.8542 65.9479 28.2708 66.0938 27.6875C66.2396 27.125 66.3333 26.6875 66.375 26.375C66.4583 25.8958 66.5208 25.4375 66.5625 25C66.625 24.5833 66.6771 24.1771 66.7188 23.7812C66.7604 23.4062 66.7917 23.0312 66.8125 22.6562C66.8333 22.2812 66.8438 21.875 66.8438 21.4375C66.8438 21.375 66.8333 21.2292 66.8125 21C66.8125 20.7917 66.8125 20.6562 66.8125 20.5938C66.25 21.3229 65.7812 22.0625 65.4062 22.8125C65.0312 23.5625 64.7083 24.3229 64.4375 25.0938C64.1875 25.8854 63.9688 26.6979 63.7812 27.5312C63.6146 28.3854 63.4583 29.2708 63.3125 30.1875ZM62.5625 13.4062C62.625 13.5729 62.7083 13.7188 62.8125 13.8438C62.9375 13.9688 63.1042 14.0312 63.3125 14.0312C64.1667 14.0312 64.9271 13.8542 65.5938 13.5C66.2812 13.125 66.8854 12.6458 67.4062 12.0625C67.9271 11.4792 68.375 10.8438 68.75 10.1562C69.1458 9.46875 69.4792 8.78125 69.75 8.09375V7.96875C69.4167 7.28125 69.0312 6.84375 68.5938 6.65625C68.1771 6.44792 67.7292 6.41667 67.25 6.5625C66.7917 6.6875 66.3229 6.95833 65.8438 7.375C65.3646 7.77083 64.9062 8.22917 64.4688 8.75C64.0521 9.25 63.6771 9.78125 63.3438 10.3438C63.0104 10.9062 62.75 11.4271 62.5625 11.9062C62.375 12.3646 62.2708 12.7396 62.25 13.0312C62.2292 13.3229 62.3333 13.4479 62.5625 13.4062ZM76.7812 17.0625C76.7812 17 76.7812 16.8438 76.7812 16.5938C76.7812 16.3438 76.7812 16.1771 76.7812 16.0938C76.4271 14.8438 76.375 13.6146 76.625 12.4062C76.8958 11.1979 77.3646 10.1146 78.0312 9.15625C78.7188 8.17708 79.5833 7.36458 80.625 6.71875C81.6875 6.05208 82.8438 5.64583 84.0938 5.5H84.6562C85.1146 5.5 85.4896 5.60417 85.7812 5.8125C86.0938 6 86.3333 6.25 86.5 6.5625C86.6875 6.875 86.8125 7.22917 86.875 7.625C86.9583 8.02083 87 8.41667 87 8.8125C87 9.35417 86.9375 9.88542 86.8125 10.4062C86.7083 10.9062 86.5833 11.4167 86.4375 11.9375C86.3125 12.4583 86.1875 12.9792 86.0625 13.5C85.9583 14 85.9062 14.5312 85.9062 15.0938V15.2812C85.9271 15.3229 85.9479 15.4479 85.9688 15.6562C86.0104 15.8438 86.0417 15.9583 86.0625 16C86.1042 16 86.2083 16.0104 86.375 16.0312C86.5417 16.0312 86.6458 16.0312 86.6875 16.0312C86.8958 16.0312 87.0938 16.0312 87.2812 16.0312C87.4896 16.0104 87.6979 15.9583 87.9062 15.875L93.8438 13.125C93.8646 13.125 93.8958 13.125 93.9375 13.125C94 13.1042 94.0417 13.0938 94.0625 13.0938C94.2708 13.0938 94.4375 13.1562 94.5625 13.2812C94.7083 13.4062 94.7812 13.5729 94.7812 13.7812C94.7812 13.8854 94.7708 13.9896 94.75 14.0938C94.75 14.1771 94.6979 14.2604 94.5938 14.3438C94.4479 14.4479 94.1771 14.5938 93.7812 14.7812C93.4062 14.9688 93 15.1771 92.5625 15.4062C92.125 15.6354 91.7083 15.8542 91.3125 16.0625C90.9375 16.2708 90.6667 16.4062 90.5 16.4688C90.2083 16.6354 89.8854 16.7917 89.5312 16.9375C89.1771 17.0625 88.8125 17.1875 88.4375 17.3125C88.0625 17.4375 87.6875 17.5417 87.3125 17.625C86.9583 17.6875 86.6354 17.7188 86.3438 17.7188C85.8854 17.7188 85.5104 17.6458 85.2188 17.5C84.9271 17.3333 84.7083 17.125 84.5625 16.875C84.4167 16.6042 84.3125 16.2917 84.25 15.9375C84.2083 15.5625 84.2083 15.1771 84.25 14.7812C83.8333 15.1146 83.3854 15.4688 82.9062 15.8438C82.4271 16.2188 81.9271 16.5625 81.4062 16.875C80.8854 17.1875 80.3542 17.4583 79.8125 17.6875C79.2708 17.9167 78.7188 18.0312 78.1562 18.0312C77.8438 18.0312 77.5625 17.9583 77.3125 17.8125C77.0625 17.6458 76.8854 17.3958 76.7812 17.0625ZM78.4688 16.4062C78.9479 16.4062 79.4792 16.2708 80.0625 16C80.6458 15.7083 81.2188 15.3542 81.7812 14.9375C82.3438 14.5208 82.8542 14.0833 83.3125 13.625C83.7708 13.1458 84.125 12.7188 84.375 12.3438C84.3958 11.7188 84.4792 11.125 84.625 10.5625C84.7917 9.97917 84.875 9.38542 84.875 8.78125C84.875 8.73958 84.8646 8.67708 84.8438 8.59375C84.8438 8.51042 84.8438 8.44792 84.8438 8.40625C84.5729 8.17708 84.3438 8.04167 84.1562 8C83.9688 7.95833 83.7188 7.9375 83.4062 7.9375C83.3646 7.9375 83.2708 7.9375 83.125 7.9375C83 7.9375 82.9167 7.94792 82.875 7.96875C82.75 8.07292 82.5417 8.27083 82.25 8.5625C81.9583 8.83333 81.6458 9.13542 81.3125 9.46875C81 9.80208 80.6979 10.1146 80.4062 10.4062C80.1354 10.6979 79.9479 10.8958 79.8438 11C79.8229 11 79.7812 11.0417 79.7188 11.125C79.6562 11.1875 79.5833 11.2708 79.5 11.375C79.4375 11.4792 79.375 11.5833 79.3125 11.6875C79.2708 11.7708 79.2396 11.8438 79.2188 11.9062L78.4688 15.5625V16.4062ZM93.8125 12.3438C93.8125 12.3438 93.8229 12.3333 93.8438 12.3125C93.8854 12.2708 93.9167 12.2396 93.9375 12.2188C93.9792 12.0312 94.0625 11.7083 94.1875 11.25C94.3125 10.7917 94.4479 10.3021 94.5938 9.78125C94.7396 9.23958 94.875 8.73958 95 8.28125C95.1458 7.82292 95.25 7.51042 95.3125 7.34375C95.3333 7.26042 95.3958 7.08333 95.5 6.8125C95.625 6.52083 95.7604 6.20833 95.9062 5.875C96.0521 5.54167 96.1979 5.20833 96.3438 4.875C96.4896 4.54167 96.5938 4.29167 96.6562 4.125C96.8021 3.83333 97.0208 3.44792 97.3125 2.96875C97.625 2.48958 97.9688 2.04167 98.3438 1.625C98.7396 1.1875 99.1458 0.8125 99.5625 0.5C99.9792 0.166667 100.365 0 100.719 0C100.906 0 101.052 0.0520833 101.156 0.15625C101.281 0.260417 101.365 0.385417 101.406 0.53125C101.469 0.65625 101.51 0.802083 101.531 0.96875C101.552 1.13542 101.562 1.28125 101.562 1.40625C101.562 2.48958 101.406 3.57292 101.094 4.65625C100.802 5.71875 100.396 6.73958 99.875 7.71875C99.3542 8.69792 98.7292 9.625 98 10.5C97.2917 11.3542 96.5417 12.125 95.75 12.8125C95.7292 12.875 95.6979 13 95.6562 13.1875C95.6354 13.375 95.6146 13.5104 95.5938 13.5938V13.6562C95.5938 14.0729 95.6979 14.4062 95.9062 14.6562C96.1354 14.9062 96.4062 15.0938 96.7188 15.2188C97.0312 15.3229 97.375 15.3958 97.75 15.4375C98.1458 15.4792 98.5208 15.5 98.875 15.5C99.0625 15.5 99.3333 15.4062 99.6875 15.2188C100.062 15.0312 100.438 14.8229 100.812 14.5938C101.208 14.3438 101.594 14.125 101.969 13.9375C102.344 13.75 102.625 13.6562 102.812 13.6562C103 13.6562 103.146 13.7188 103.25 13.8438C103.354 13.9688 103.406 14.125 103.406 14.3125C103.406 14.625 103.167 14.9583 102.688 15.3125C102.208 15.6667 101.656 16 101.031 16.3125C100.406 16.6042 99.8021 16.8542 99.2188 17.0625C98.6562 17.2708 98.2812 17.375 98.0938 17.375C97.4688 17.5 96.8854 17.5104 96.3438 17.4062C95.8021 17.2812 95.3333 17.0833 94.9375 16.8125C94.5417 16.5208 94.2083 16.1771 93.9375 15.7812C93.6875 15.3646 93.5312 14.9375 93.4688 14.5L93.8125 12.3438ZM99.7188 3.03125C99.5312 3.03125 99.3125 3.1875 99.0625 3.5C98.8333 3.79167 98.6042 4.13542 98.375 4.53125C98.1458 4.92708 97.9375 5.3125 97.75 5.6875C97.5833 6.04167 97.4896 6.28125 97.4688 6.40625C97.4062 6.55208 97.3125 6.79167 97.1875 7.125C97.0625 7.45833 96.9375 7.8125 96.8125 8.1875C96.6875 8.54167 96.5625 8.88542 96.4375 9.21875C96.3333 9.55208 96.2604 9.79167 96.2188 9.9375H96.375C96.375 9.9375 96.4375 9.86458 96.5625 9.71875C96.6875 9.55208 96.8229 9.36458 96.9688 9.15625C97.1354 8.94792 97.3021 8.73958 97.4688 8.53125C97.6562 8.30208 97.7917 8.11458 97.875 7.96875C97.9583 7.84375 98.0729 7.65625 98.2188 7.40625C98.3646 7.13542 98.4583 6.96875 98.5 6.90625C98.5833 6.67708 98.6979 6.375 98.8438 6C98.9896 5.60417 99.125 5.21875 99.25 4.84375C99.375 4.46875 99.4792 4.14583 99.5625 3.875C99.6667 3.58333 99.7188 3.41667 99.7188 3.375V3.03125ZM102.812 16.9688C102.854 16.9062 102.938 16.8125 103.062 16.6875C103.208 16.5625 103.302 16.4896 103.344 16.4688C106.302 16.2396 109.26 16.0312 112.219 15.8438C115.198 15.6562 118.167 15.4688 121.125 15.2812C124.083 15.0938 127.042 14.8854 130 14.6562C132.958 14.4271 135.917 14.1667 138.875 13.875C139.292 13.9375 139.573 14.0312 139.719 14.1562C139.865 14.2812 139.938 14.5312 139.938 14.9062C139.938 14.9896 139.938 15.0833 139.938 15.1875C139.938 15.2917 139.917 15.3854 139.875 15.4688C139.854 15.5521 139.802 15.6146 139.719 15.6562C139.656 15.6979 139.552 15.6979 139.406 15.6562C133.885 16.1771 128.354 16.6667 122.812 17.125C117.271 17.5625 111.729 17.7812 106.188 17.7812C106.083 17.7812 105.896 17.7812 105.625 17.7812C105.354 17.7812 105.062 17.7812 104.75 17.7812C104.458 17.7604 104.177 17.75 103.906 17.75C103.635 17.75 103.448 17.75 103.344 17.75C103.302 17.7083 103.208 17.625 103.062 17.5C102.938 17.375 102.854 17.2812 102.812 17.2188C102.792 17.1979 102.781 17.1771 102.781 17.1562V17.0625L102.812 16.9688Z" fill="white"/>
</svg>
